<svg width="19" height="20" viewBox="0 0 19 20" fill="none" xmlns="http://www.w3.org/2000/svg">
<g clip-path="url(#clip0_74_6521)">
<path fill-rule="evenodd" clip-rule="evenodd" d="M8.19522 1.50501C9.15902 0.541211 10.4662 -0.000244151 11.8292 -0.000244141C13.1922 -0.00024413 14.4994 0.541211 15.4632 1.50501C16.427 2.4688 16.9685 3.77599 16.9685 5.13901C16.9685 6.50202 16.427 7.80921 15.4632 8.77301L9.40122 14.835C8.83024 15.3499 8.08335 15.626 7.31473 15.6062C6.5461 15.5863 5.81443 15.2722 5.27075 14.7285C4.72708 14.1848 4.4129 13.4531 4.39307 12.6845C4.37325 11.9159 4.64929 11.169 5.16422 10.598L11.2262 4.53601C11.3047 4.45378 11.3989 4.38807 11.5031 4.34275C11.6074 4.29743 11.7196 4.2734 11.8333 4.27208C11.947 4.27077 12.0598 4.29218 12.1651 4.33508C12.2703 4.37797 12.366 4.44148 12.4464 4.52186C12.5268 4.60225 12.5903 4.69789 12.6332 4.80317C12.676 4.90845 12.6975 5.02124 12.6961 5.13491C12.6948 5.24859 12.6708 5.36085 12.6255 5.46511C12.5802 5.56936 12.5144 5.66351 12.4322 5.74201L6.37022 11.805C6.12808 12.0472 5.99205 12.3756 5.99205 12.718C5.99205 13.0604 6.12808 13.3889 6.37022 13.631C6.61237 13.8732 6.94078 14.0092 7.28322 14.0092C7.62567 14.0092 7.95408 13.8732 8.19622 13.631L14.2582 7.56901C14.9023 6.92493 15.2641 6.05137 15.2641 5.14051C15.2641 4.22964 14.9023 3.35609 14.2582 2.71201C13.6141 2.06793 12.7406 1.70609 11.8297 1.70609C10.9189 1.70609 10.0453 2.06793 9.40122 2.71201L3.33822 8.77301C2.81084 9.28884 2.39102 9.90416 2.10306 10.5833C1.81511 11.2625 1.66473 11.9921 1.66065 12.7298C1.65657 13.4675 1.79886 14.1987 2.07928 14.881C2.3597 15.5633 2.77269 16.1833 3.29432 16.7049C3.81596 17.2265 4.43589 17.6395 5.11823 17.92C5.80056 18.2004 6.53174 18.3427 7.26944 18.3386C8.00713 18.3345 8.7367 18.1841 9.41588 17.8962C10.0951 17.6082 10.7104 17.1884 11.2262 16.661L17.2882 10.599C17.4494 10.4452 17.6643 10.3605 17.8871 10.363C18.1099 10.3656 18.3229 10.4553 18.4804 10.6128C18.6379 10.7704 18.7276 10.9833 18.7302 11.2061C18.7328 11.4289 18.6481 11.6439 18.4942 11.805L12.4322 17.867C11.0664 19.2329 9.21385 20.0002 7.28222 20.0002C5.3506 20.0002 3.49809 19.2329 2.13222 17.867C0.766358 16.5011 -0.000976562 14.6486 -0.000976562 12.717C-0.000976562 10.7854 0.766358 8.93287 2.13222 7.56701L8.19522 1.50501Z" fill="#93AFB1"/>
</g>
<defs>
<clipPath id="clip0_74_6521">
<rect width="18.744" height="20" fill="white"/>
</clipPath>
</defs>
</svg>
