<svg width="20" height="20" viewBox="0 0 20 20" fill="none" xmlns="http://www.w3.org/2000/svg">
<g clip-path="url(#clip0_74_5976)">
<path d="M10 0C8.02219 0 6.08879 0.58649 4.4443 1.6853C2.79981 2.78412 1.51809 4.3459 0.761209 6.17317C0.00433284 8.00043 -0.193701 10.0111 0.192152 11.9509C0.578004 13.8907 1.53041 15.6725 2.92894 17.0711C4.32746 18.4696 6.10929 19.422 8.0491 19.8079C9.98891 20.1937 11.9996 19.9957 13.8268 19.2388C15.6541 18.4819 17.2159 17.2002 18.3147 15.5557C19.4135 13.9112 20 11.9778 20 10C20 7.34784 18.9464 4.8043 17.0711 2.92893C15.1957 1.05357 12.6522 0 10 0ZM6.068 4.039C7.23473 3.26682 8.6029 2.85508 10.002 2.85508C11.4011 2.85508 12.7693 3.26682 13.936 4.039L4.043 13.936C3.52609 13.1532 3.16843 12.2762 2.99045 11.3552C2.81246 10.4342 2.81764 9.48712 3.00568 8.56809C3.19372 7.64906 3.56094 6.77607 4.08638 5.99897C4.61181 5.22186 5.28517 4.55586 6.068 4.039ZM13.932 15.961C12.7653 16.7332 11.3971 17.1449 9.998 17.1449C8.5989 17.1449 7.23073 16.7332 6.064 15.961L15.957 6.068C16.9997 7.64862 17.3721 9.57858 16.9924 11.4337C16.6127 13.2888 15.5119 14.9172 13.932 15.961Z" fill="#43686A"/>
</g>
<defs>
<clipPath id="clip0_74_5976">
<rect width="20" height="20" fill="white"/>
</clipPath>
</defs>
</svg>
