<svg width="22" height="20" viewBox="0 0 22 20" fill="none" xmlns="http://www.w3.org/2000/svg">
<g clip-path="url(#clip0_74_5981)">
<path d="M10.625 0C4.766 0 0 4.205 0 9.375C0.0195245 11.6054 0.891432 13.7438 2.437 15.352C2.59104 15.9846 2.57998 16.6461 2.40487 17.2732C2.22976 17.9002 1.89649 18.4718 1.437 18.933C1.35028 19.0203 1.29124 19.1313 1.26726 19.252C1.24328 19.3728 1.25541 19.4979 1.30215 19.6118C1.34889 19.7256 1.42816 19.8232 1.53005 19.8922C1.63194 19.9613 1.75192 19.9988 1.875 20C3.65567 19.9983 5.36654 19.3073 6.649 18.072C7.92553 18.5248 9.27055 18.7541 10.625 18.75C16.484 18.75 21.333 14.545 21.333 9.375C21.333 4.205 16.484 0 10.625 0ZM5.708 11.25C5.33716 11.25 4.97465 11.14 4.66631 10.934C4.35796 10.728 4.11764 10.4351 3.97573 10.0925C3.83381 9.74992 3.79668 9.37292 3.86903 9.0092C3.94138 8.64549 4.11995 8.3114 4.38217 8.04918C4.6444 7.78695 4.97849 7.60838 5.34221 7.53603C5.70592 7.46368 6.08292 7.50081 6.42553 7.64272C6.76814 7.78464 7.06098 8.02496 7.26701 8.33331C7.47303 8.64165 7.583 9.00416 7.583 9.375C7.58247 9.87212 7.38476 10.3487 7.03324 10.7002C6.68172 11.0518 6.20512 11.2495 5.708 11.25ZM10.708 11.25C10.3372 11.25 9.97465 11.14 9.66631 10.934C9.35796 10.728 9.11764 10.4351 8.97573 10.0925C8.83381 9.74992 8.79668 9.37292 8.86903 9.0092C8.94137 8.64549 9.11995 8.3114 9.38217 8.04918C9.6444 7.78695 9.97849 7.60838 10.3422 7.53603C10.7059 7.46368 11.0829 7.50081 11.4255 7.64272C11.7681 7.78464 12.061 8.02496 12.267 8.33331C12.473 8.64165 12.583 9.00416 12.583 9.375C12.5825 9.87212 12.3848 10.3487 12.0332 10.7002C11.6817 11.0518 11.2051 11.2495 10.708 11.25ZM15.708 11.25C15.3372 11.25 14.9746 11.14 14.6663 10.934C14.358 10.728 14.1176 10.4351 13.9757 10.0925C13.8338 9.74992 13.7967 9.37292 13.869 9.0092C13.9414 8.64549 14.12 8.3114 14.3822 8.04918C14.6444 7.78695 14.9785 7.60838 15.3422 7.53603C15.7059 7.46368 16.0829 7.50081 16.4255 7.64272C16.7681 7.78464 17.061 8.02496 17.267 8.33331C17.473 8.64165 17.583 9.00416 17.583 9.375C17.5825 9.87212 17.3848 10.3487 17.0332 10.7002C16.6817 11.0518 16.2051 11.2495 15.708 11.25Z" fill="#43686A"/>
</g>
<defs>
<clipPath id="clip0_74_5981">
<rect width="21.333" height="20" fill="white"/>
</clipPath>
</defs>
</svg>
