<svg width="24" height="24" viewBox="0 0 24 24" fill="none" xmlns="http://www.w3.org/2000/svg">
<g clip-path="url(#clip0_2193_32)">
<path d="M21.3628 22.5966V15.0921H13.9573V22.5966H12.6645V13.6859H17.0122V5.66548H15.5667V2.52374H13.9267V0H12.6367V2.52374H10.9981V5.66548H9.54838V22.5966H8.25974V8.80858H2.63719V22.5966H1V24.0027H23V22.5966H21.3628ZM14.0767 7.40242H15.3653V8.80858H14.0767V7.40242ZM14.0767 10.5442H15.3653V11.9503H14.0767V10.5442ZM6.06432 22.0425H4.77567V20.6364H6.06432V22.0425ZM6.06432 18.6789H4.77567V17.2714H6.06432V18.6789ZM6.06432 15.3153H4.77567V13.9078H6.06432V15.3153ZM6.06432 11.9517H4.77567V10.5442H6.06432V11.9517ZM12.4867 11.9517H11.1967V10.5442H12.4853L12.4867 11.9517ZM12.4867 8.80994H11.1967V7.40242H12.4853L12.4867 8.80994ZM12.6367 4.25932H13.9253V5.66548H12.6367V4.25932ZM16.8553 22.5966H15.5667V16.9501H16.8553V22.5966ZM19.7534 22.5966H18.4647V16.9501H19.7534V22.5966Z" fill="#05A1AB"/>
</g>
<defs>
<clipPath id="clip0_2193_32">
<rect width="22" height="24" fill="white" transform="translate(1)"/>
</clipPath>
</defs>
</svg>
