<svg width="24" height="24" viewBox="0 0 24 24" fill="none" xmlns="http://www.w3.org/2000/svg">
<g clip-path="url(#clip0_2193_35)">
<path fill-rule="evenodd" clip-rule="evenodd" d="M10.8644 2.05469C11.0555 2.10245 11.2352 2.18732 11.3934 2.30445C11.5517 2.42158 11.6852 2.56868 11.7865 2.73734C11.8877 2.90601 11.9547 3.09294 11.9836 3.28745C12.0124 3.48197 12.0027 3.68026 11.9548 3.87099L11.2951 6.50195H15.709L16.5441 3.14328C16.592 2.95255 16.677 2.77309 16.7943 2.61515C16.9116 2.45722 17.059 2.32391 17.2279 2.22282C17.3968 2.12174 17.5841 2.05486 17.7789 2.02601C17.9737 1.99717 18.1723 2.00691 18.3634 2.05469C18.5544 2.10248 18.7342 2.18736 18.8924 2.3045C19.0505 2.42163 19.1841 2.56873 19.2853 2.73739C19.3866 2.90605 19.4536 3.09297 19.4825 3.28747C19.5114 3.48198 19.5016 3.68026 19.4537 3.87099L18.794 6.50195H22.4994C22.8972 6.50195 23.2788 6.65974 23.5601 6.94062C23.8415 7.22149 23.9995 7.60244 23.9995 7.99965C23.9995 8.39687 23.8415 8.77781 23.5601 9.05869C23.2788 9.33956 22.8972 9.49736 22.4994 9.49736H18.0448L16.5453 15.4882H19.5003C19.8981 15.4882 20.2797 15.646 20.561 15.9268C20.8424 16.2077 21.0004 16.5887 21.0004 16.9859C21.0004 17.3831 20.8424 17.764 20.561 18.0449C20.2797 18.3258 19.8981 18.4836 19.5003 18.4836H15.7949L14.9598 21.841C14.9121 22.0318 14.8271 22.2113 14.7099 22.3692C14.5926 22.5272 14.4453 22.6605 14.2765 22.7617C14.1076 22.8628 13.9204 22.9298 13.7256 22.9587C13.5308 22.9876 13.3322 22.9779 13.1412 22.9302C12.9501 22.8825 12.7704 22.7977 12.6121 22.6807C12.4539 22.5636 12.3203 22.4166 12.219 22.248C12.1177 22.0794 12.0507 21.8925 12.0217 21.698C11.9927 21.5035 12.0024 21.3053 12.0502 21.1145L12.7099 18.4836H8.29596L7.46089 21.841C7.36439 22.2263 7.11857 22.5574 6.7775 22.7617C6.43643 22.9659 6.02806 23.0266 5.64222 22.9302C5.25638 22.8339 4.92467 22.5885 4.72008 22.248C4.51548 21.9074 4.45476 21.4997 4.55126 21.1145L5.21096 18.4836H1.49966C1.1018 18.4836 0.720228 18.3258 0.438895 18.0449C0.157563 17.764 -0.000488281 17.3831 -0.000488281 16.9859C-0.000488281 16.5887 0.157563 16.2077 0.438895 15.9268C0.720228 15.646 1.1018 15.4882 1.49966 15.4882H5.95537L7.45492 9.49736H4.49996C4.10209 9.49736 3.72053 9.33956 3.43919 9.05869C3.15786 8.77781 2.99981 8.39687 2.99981 7.99965C2.99981 7.60244 3.15786 7.22149 3.43919 6.94062C3.72053 6.65974 4.10209 6.50195 4.49996 6.50195H8.2053L9.04037 3.14328C9.08821 2.95253 9.17321 2.77305 9.29053 2.61511C9.40785 2.45716 9.55519 2.32383 9.72413 2.22274C9.89308 2.12165 10.0803 2.05478 10.2751 2.02595C10.47 1.99711 10.6686 2.00688 10.8596 2.05469H10.8644ZM10.5447 9.49736L9.04514 15.4882H13.4519L14.9515 9.49736H10.5471H10.5447Z" fill="#05A1AB"/>
</g>
<defs>
<clipPath id="clip0_2193_35">
<rect width="24" height="21" fill="white" transform="translate(0 2)"/>
</clipPath>
</defs>
</svg>
