<svg width="24" height="24" viewBox="0 0 24 24" fill="none" xmlns="http://www.w3.org/2000/svg">
<g clip-path="url(#clip0_2193_34)">
<path d="M15.3333 15.5156H11.1475C11.3043 16.0547 11.6348 16.5289 12.0892 16.867C12.5436 17.205 13.0974 17.3886 13.667 17.39H15.3333C15.7052 17.3899 16.0719 17.3036 16.4036 17.1381L16.2736 16.3078C16.2376 16.0875 16.1233 15.887 15.9511 15.7419C15.7789 15.5969 15.56 15.5167 15.3333 15.5156Z" fill="#05A1AB"/>
<path d="M21.285 8.48633H19.1416V15.0485C19.1422 15.9013 18.846 16.7285 18.3022 17.3924H21.2837C21.4733 17.3924 21.6551 17.3183 21.7892 17.1863C21.9233 17.0543 21.9986 16.8753 21.9986 16.6887V9.1887C21.9982 9.00253 21.9229 8.82409 21.7892 8.69245C21.6554 8.56081 21.4742 8.48669 21.285 8.48633Z" fill="#05A1AB"/>
<path d="M15.0955 5.20427H6.04757V4.01053C6.38551 3.68469 6.6172 3.26715 6.71308 2.81117C6.80896 2.35519 6.76468 1.88143 6.58591 1.45032C6.40714 1.01921 6.10196 0.650275 5.70931 0.390577C5.31665 0.13088 4.85431 -0.0078125 4.38125 -0.0078125C3.90819 -0.0078125 3.44585 0.13088 3.05319 0.390577C2.66054 0.650275 2.35536 1.01921 2.17659 1.45032C1.99781 1.88143 1.95354 2.35519 2.04942 2.81117C2.1453 3.26715 2.37699 3.68469 2.71493 4.01053V23.2955C2.71493 23.4821 2.79025 23.6611 2.92433 23.7931C3.0584 23.925 3.24025 23.9992 3.42986 23.9992H5.33403C5.42791 23.9992 5.52087 23.981 5.60761 23.9456C5.69435 23.9103 5.77317 23.8584 5.83956 23.7931C5.90594 23.7277 5.9586 23.6502 5.99453 23.5648C6.03046 23.4794 6.04895 23.3879 6.04895 23.2955V14.109H15.3333C15.9011 14.1101 16.4498 14.3106 16.8807 14.6744C17.3117 15.0382 17.5966 15.5414 17.6842 16.0936H17.7132V7.78231C17.711 7.09924 17.4344 6.44475 16.9437 5.96174C16.453 5.47873 15.7894 5.20643 15.0955 5.20427Z" fill="#05A1AB"/>
</g>
<defs>
<clipPath id="clip0_2193_34">
<rect width="20" height="24" fill="white" transform="translate(2)"/>
</clipPath>
</defs>
</svg>
