<svg width="22" height="18" viewBox="0 0 22 18" fill="none" xmlns="http://www.w3.org/2000/svg">
<g clip-path="url(#clip0_108_33)">
<path d="M8.74605 16.1849C8.72039 16.1268 8.71073 16.063 8.71805 15.9999C8.72705 15.9499 8.69505 15.9089 8.61805 15.8769C8.54105 15.8449 8.50905 15.8199 8.50905 15.8019C8.50905 15.7839 8.45705 15.7699 8.35205 15.7609L8.20005 15.7429H3.93605C3.64845 15.7474 3.363 15.6927 3.0974 15.5822C2.8318 15.4718 2.59173 15.308 2.39205 15.1009C2.18525 14.9011 2.02158 14.661 1.91116 14.3954C1.80075 14.1298 1.74592 13.8445 1.75005 13.5569V3.93591C1.74592 3.64835 1.80075 3.36299 1.91116 3.09743C2.02158 2.83188 2.18525 2.59177 2.39205 2.39192C2.59194 2.18515 2.83206 2.02152 3.09761 1.91111C3.36315 1.80069 3.6485 1.74584 3.93605 1.74992H8.30905C8.41014 1.75557 8.50978 1.7239 8.58905 1.66092C8.66367 1.59002 8.71197 1.49587 8.72605 1.39391C8.74724 1.28801 8.76094 1.18075 8.76705 1.07292C8.77115 0.95221 8.76882 0.831373 8.76005 0.710916C8.75072 0.564916 8.74605 0.473917 8.74605 0.437917C8.7445 0.322501 8.69796 0.212247 8.61634 0.130628C8.53472 0.0490088 8.42447 0.00246977 8.30905 0.000916872H3.93605C3.41827 -0.00686935 2.90438 0.0915081 2.42607 0.289983C1.94777 0.488458 1.51521 0.782822 1.15505 1.15492C0.782779 1.51498 0.488231 1.94751 0.289582 2.42582C0.090933 2.90412 -0.00760251 3.41806 5.44665e-05 3.93591V13.5569C-0.00766178 14.0748 0.0908467 14.5887 0.289499 15.0671C0.488151 15.5454 0.782731 15.9779 1.15505 16.3379C1.51508 16.7102 1.94761 17.0048 2.42592 17.2035C2.90423 17.4021 3.41819 17.5006 3.93605 17.4929H8.30905C8.41012 17.4984 8.5097 17.4667 8.58905 17.4039C8.66367 17.333 8.71197 17.2389 8.72605 17.1369C8.74724 17.031 8.76094 16.9237 8.76705 16.8159C8.77115 16.6952 8.76882 16.5744 8.76005 16.4539C8.75072 16.3079 8.74605 16.2182 8.74605 16.1849Z" fill="#54D9E1"/>
<path d="M21.169 8.13095L13.735 0.696953C13.6127 0.576064 13.4575 0.493908 13.2887 0.460751C13.1199 0.427594 12.9451 0.444907 12.7862 0.510525C12.6272 0.576143 12.4911 0.687155 12.3948 0.829693C12.2986 0.972231 12.2465 1.13997 12.245 1.31195V5.24795H6.12305C5.89195 5.25106 5.67119 5.34424 5.50776 5.50767C5.34433 5.67109 5.25115 5.89185 5.24805 6.12295V11.371C5.25115 11.6021 5.34433 11.8228 5.50776 11.9862C5.67119 12.1497 5.89195 12.2428 6.12305 12.246H12.245V16.181C12.2441 16.354 12.2948 16.5234 12.3907 16.6675C12.4865 16.8116 12.6231 16.9238 12.7831 16.9898C12.9431 17.0559 13.1191 17.0727 13.2887 17.0381C13.4582 17.0036 13.6136 16.9193 13.735 16.796L21.169 9.36195C21.2512 9.282 21.3166 9.18638 21.3612 9.08075C21.4058 8.97512 21.4288 8.86162 21.4288 8.74695C21.4288 8.63229 21.4058 8.51879 21.3612 8.41315C21.3166 8.30752 21.2512 8.21191 21.169 8.13195V8.13095Z" fill="#54D9E1"/>
</g>
<defs>
<clipPath id="clip0_108_33">
<rect width="21.428" height="17.492" fill="white"/>
</clipPath>
</defs>
</svg>
