<svg width="16" height="20" viewBox="0 0 16 20" fill="none" xmlns="http://www.w3.org/2000/svg">
<g clip-path="url(#clip0_74_5968)">
<path d="M14.2462 10.9251C13.6562 10.4265 13.0054 10.0048 12.3092 9.67006C11.7752 9.40406 11.3792 9.25206 11.3712 9.24806C10.4592 8.92806 10.1342 8.60006 10.0222 8.38306L9.97624 8.25206C9.96324 8.20606 9.95224 8.16206 9.94124 8.12006L9.83024 7.49806V7.46806C10.1323 7.08109 10.3719 6.64919 10.5402 6.18806L10.5632 6.15306C10.7617 5.8779 10.8982 5.56301 10.9632 5.23006C11.1532 4.69506 11.0822 4.46306 11.0232 4.36906L10.9992 4.33106L11.0132 4.28906C11.2816 3.47616 11.2275 2.59126 10.8622 1.81706L10.8522 1.78906C10.75 1.4651 10.5731 1.16966 10.3358 0.926504C10.0986 0.683349 9.80759 0.499266 9.48624 0.389059C8.93293 0.114783 8.32052 -0.0188273 7.70324 5.89022e-05H7.59024C6.97222 -0.0201713 6.35875 0.112415 5.80424 0.386059C5.48297 0.496406 5.19204 0.680537 4.95481 0.923671C4.71758 1.16681 4.54066 1.46217 4.43824 1.78606L4.42724 1.81406C4.06229 2.58834 4.00824 3.47312 4.27624 4.28606L4.29024 4.32806L4.26624 4.36606C4.20724 4.46006 4.13624 4.69206 4.32624 5.22706C4.39133 5.56001 4.5278 5.8749 4.72624 6.15006L4.74924 6.18506C4.91761 6.64619 5.15718 7.07809 5.45924 7.46506V7.49506L5.34824 8.11706C5.33724 8.15906 5.32624 8.20206 5.31324 8.24906L5.26724 8.38006C5.15524 8.59806 4.82924 8.92506 3.91824 9.24506C3.91024 9.24506 3.51824 9.40106 2.98024 9.66706C2.28523 10.0022 1.6354 10.4238 1.04624 10.9221C0.64078 11.3254 0.335705 11.8183 0.155586 12.3611C-0.0245331 12.9038 -0.0746592 13.4814 0.00924453 14.0471C0.0152445 14.2111 0.0282445 14.3811 0.0492445 14.5601C0.0492445 14.7401 0.107244 14.8851 0.455244 14.9931C1.72777 15.4055 3.03668 15.6958 4.36424 15.8601V18.5141C4.36451 18.9074 4.5206 19.2846 4.79836 19.5631C5.07612 19.8416 5.45291 19.9987 5.84624 20.0001H9.44625C9.84028 19.9998 10.2181 19.8431 10.4967 19.5645C10.7753 19.2859 10.932 18.9081 10.9322 18.5141V15.8601C12.2598 15.696 13.5687 15.406 14.8412 14.9941C15.1892 14.8861 15.2472 14.7411 15.2472 14.5601C15.2672 14.3811 15.2802 14.2121 15.2862 14.0481C15.3696 13.4824 15.3189 12.9051 15.1383 12.3627C14.9576 11.8202 14.6521 11.3278 14.2462 10.9251ZM10.2172 18.5141C10.2172 18.7186 10.136 18.9148 9.99148 19.0596C9.84692 19.2043 9.65082 19.2858 9.44625 19.2861H5.84624C5.6415 19.2861 5.44514 19.2047 5.30036 19.0599C5.15558 18.9152 5.07424 18.7188 5.07424 18.5141V13.6291C5.07424 13.4243 5.15558 13.228 5.30036 13.0832C5.44514 12.9384 5.6415 12.8571 5.84624 12.8571H9.44625C9.54758 12.8571 9.64792 12.877 9.74152 12.9158C9.83513 12.9547 9.92017 13.0115 9.99178 13.0832C10.0634 13.1549 10.1202 13.24 10.1588 13.3337C10.1975 13.4274 10.2174 13.5277 10.2172 13.6291V18.5141Z" fill="#43686A"/>
<path d="M9.21621 13.929H6.07721C5.98253 13.929 5.89173 13.9666 5.82478 14.0335C5.75783 14.1005 5.72021 14.1913 5.72021 14.286C5.72021 14.3806 5.75783 14.4714 5.82478 14.5384C5.89173 14.6053 5.98253 14.643 6.07721 14.643H9.21621C9.3109 14.643 9.4017 14.6053 9.46865 14.5384C9.5356 14.4714 9.57321 14.3806 9.57321 14.286C9.57321 14.1913 9.5356 14.1005 9.46865 14.0335C9.4017 13.9666 9.3109 13.929 9.21621 13.929Z" fill="#43686A"/>
<path d="M9.21621 15.7141H6.07721C5.98253 15.7141 5.89173 15.7517 5.82478 15.8187C5.75783 15.8856 5.72021 15.9764 5.72021 16.0711C5.72021 16.1658 5.75783 16.2566 5.82478 16.3236C5.89173 16.3905 5.98253 16.4281 6.07721 16.4281H9.21621C9.3109 16.4281 9.4017 16.3905 9.46865 16.3236C9.5356 16.2566 9.57321 16.1658 9.57321 16.0711C9.57321 15.9764 9.5356 15.8856 9.46865 15.8187C9.4017 15.7517 9.3109 15.7141 9.21621 15.7141Z" fill="#43686A"/>
<path d="M7.64721 17.5H6.07721C5.98253 17.5 5.89173 17.5376 5.82478 17.6046C5.75783 17.6715 5.72021 17.7623 5.72021 17.857C5.72021 17.9517 5.75783 18.0425 5.82478 18.1094C5.89173 18.1764 5.98253 18.214 6.07721 18.214H7.64721C7.7419 18.214 7.8327 18.1764 7.89965 18.1094C7.9666 18.0425 8.00421 17.9517 8.00421 17.857C8.00421 17.7623 7.9666 17.6715 7.89965 17.6046C7.8327 17.5376 7.7419 17.5 7.64721 17.5Z" fill="#43686A"/>
</g>
<defs>
<clipPath id="clip0_74_5968">
<rect width="15.293" height="20" fill="white"/>
</clipPath>
</defs>
</svg>
