<svg width="14" height="8" viewBox="0 0 14 8" fill="none" xmlns="http://www.w3.org/2000/svg">
<path d="M13.5178 1.245L7.60785 7.517C7.5117 7.61957 7.39553 7.70133 7.26653 7.75722C7.13753 7.81311 6.99844 7.84195 6.85785 7.84195C6.71726 7.84195 6.57816 7.81311 6.44916 7.75722C6.32016 7.70133 6.204 7.61957 6.10785 7.517L0.202847 1.245C0.104148 1.13995 0.0383282 1.00832 0.0134929 0.866327C-0.0113425 0.724336 0.00589065 0.578181 0.0630703 0.44586C0.12025 0.313539 0.21488 0.200829 0.335306 0.12161C0.455733 0.0423903 0.5967 0.000120018 0.740847 3.9258e-06H12.9768C13.1212 -0.000466663 13.2626 0.0413796 13.3835 0.120372C13.5044 0.199364 13.5995 0.312041 13.657 0.444481C13.7146 0.576921 13.7321 0.72332 13.7073 0.865588C13.6826 1.00786 13.6167 1.13976 13.5178 1.245Z" fill="#93AFB1"/>
</svg>
