<svg width="48" height="48" viewBox="0 0 48 48" fill="none" xmlns="http://www.w3.org/2000/svg">
<circle cx="24" cy="24" r="24" fill="#05A1AB"/>
<g clip-path="url(#clip0_74_6525)">
<path fill-rule="evenodd" clip-rule="evenodd" d="M22.8476 23.9524L26.9276 19.9462C26.9966 19.8785 27.0781 19.8252 27.1675 19.7892C27.257 19.7532 27.3526 19.7353 27.4489 19.7364C27.5453 19.7376 27.6405 19.7578 27.729 19.7959C27.8176 19.8341 27.8978 19.8894 27.9651 19.9587C28.0324 20.028 28.0855 20.1099 28.1213 20.1998C28.1571 20.2898 28.1749 20.3859 28.1738 20.4827C28.1726 20.5796 28.1525 20.6753 28.1146 20.7643C28.0766 20.8533 28.0216 20.934 27.9527 21.0016L23.8999 24.9782L25.1736 33.7391C25.2214 34.0681 25.3783 34.3712 25.619 34.5992C25.8596 34.8273 26.1698 34.9669 26.4993 34.9955C26.8288 35.0241 27.1582 34.9399 27.4342 34.7567C27.7101 34.5735 27.9164 34.3019 28.0195 33.986L33.9258 15.9391C34.0104 15.6811 34.0224 15.4045 33.9605 15.14C33.8986 14.8755 33.7653 14.6333 33.5752 14.4402C33.385 14.2471 33.1456 14.1105 32.8831 14.0455C32.6207 13.9805 32.3455 13.9897 32.0879 14.072L14.0247 19.8274C13.7086 19.9287 13.4359 20.1347 13.2513 20.4117C13.0666 20.6888 12.9808 21.0206 13.0078 21.3531C13.0349 21.6855 13.1732 21.9989 13.4002 22.2421C13.6272 22.4853 13.9296 22.644 14.2578 22.6923L22.8476 23.9524Z" fill="white"/>
</g>
<defs>
<clipPath id="clip0_74_6525">
<rect width="21" height="21" fill="white" transform="translate(13 14)"/>
</clipPath>
</defs>
</svg>
