<svg width="15" height="15" viewBox="0 0 15 15" fill="none" xmlns="http://www.w3.org/2000/svg">
<g clip-path="url(#clip0_74_6490)">
<path d="M1.55786 6.8506C1.26276 6.85162 0.973953 6.93826 0.724814 7.10051C0.475675 7.26276 0.276366 7.494 0.149908 7.76752C0.0234494 8.04103 -0.0249951 8.34566 0.010167 8.64623C0.045329 8.94679 0.162666 9.23102 0.348621 9.46608L4.32078 14.4569C4.46309 14.6381 4.64566 14.7817 4.8532 14.8757C5.06074 14.9696 5.28721 15.0111 5.51363 14.9968C5.75434 14.9813 5.98803 14.9074 6.19541 14.781C6.4028 14.6547 6.57797 14.4797 6.70647 14.2703L14.9565 0.640748C14.9954 0.55449 15.006 0.457608 14.9866 0.364658C14.9672 0.271708 14.919 0.187715 14.8491 0.125302C14.8052 0.0837177 14.7534 0.0517892 14.697 0.0314812C14.6406 0.0111733 14.5807 0.00291134 14.5211 0.00720906C14.4615 0.0115068 14.4033 0.0282722 14.3503 0.0564711C14.2972 0.08467 14.2503 0.123708 14.2124 0.171186L14.2035 0.181893L5.88341 9.81787C5.85177 9.85461 5.81333 9.88454 5.77032 9.90592C5.72731 9.9273 5.68059 9.9397 5.63287 9.9424C5.58515 9.9451 5.53738 9.93806 5.49234 9.92167C5.4473 9.90528 5.40588 9.87987 5.37049 9.84693L2.60906 7.26969C2.32204 7.00012 1.94701 6.8506 1.55786 6.8506Z" fill="#93AFB1"/>
</g>
<defs>
<clipPath id="clip0_74_6490">
<rect width="15" height="15" fill="white"/>
</clipPath>
</defs>
</svg>
